<svg width="33" height="32" viewBox="0 0 33 32" fill="none" xmlns="http://www.w3.org/2000/svg">
<g filter="url(#filter0_dd_443_3897)">
<path d="M18.33 7.5C19.0302 7.5 19.6466 7.84012 20.0682 8.26172C20.4898 8.68331 20.83 9.29977 20.83 10V10.5H23.58C24.1322 10.5 24.58 10.9477 24.58 11.5C24.58 12.0523 24.1322 12.5 23.58 12.5H23.08V22C23.08 22.7002 22.7398 23.3167 22.3182 23.7383C21.8966 24.1599 21.2802 24.5 20.58 24.5H13.08C12.3797 24.5 11.7633 24.1599 11.3417 23.7383C10.9201 23.3167 10.58 22.7002 10.58 22V12.5H10.08C9.52767 12.5 9.07996 12.0523 9.07996 11.5C9.07996 10.9477 9.52767 10.5 10.08 10.5H12.83V10C12.83 9.29977 13.1701 8.68331 13.5917 8.26172C14.0133 7.84012 14.6297 7.5 15.33 7.5H18.33ZM12.58 22C12.58 22.0498 12.6148 22.1833 12.7557 22.3242C12.8966 22.4651 13.0302 22.5 13.08 22.5H20.58C20.6297 22.5 20.7633 22.4651 20.9042 22.3242C21.0451 22.1833 21.08 22.0498 21.08 22V12.5H12.58V22ZM15.33 14.25C15.8822 14.25 16.33 14.6977 16.33 15.25V19.75C16.33 20.3023 15.8822 20.75 15.33 20.75C14.7777 20.75 14.33 20.3023 14.33 19.75V15.25C14.33 14.6977 14.7777 14.25 15.33 14.25ZM18.33 14.25C18.8822 14.25 19.33 14.6977 19.33 15.25V19.75C19.33 20.3023 18.8822 20.75 18.33 20.75C17.7777 20.75 17.33 20.3023 17.33 19.75V15.25C17.33 14.6977 17.7777 14.25 18.33 14.25ZM15.33 9.5C15.2802 9.5 15.1466 9.53488 15.0057 9.67578C14.8648 9.81669 14.83 9.95023 14.83 10V10.5H18.83V10C18.83 9.95023 18.7951 9.81669 18.6542 9.67578C18.5133 9.53488 18.3797 9.5 18.33 9.5H15.33Z" fill="black"/>
</g>
<defs>
<filter id="filter0_dd_443_3897" x="-2.17004" y="-2" width="38" height="38" filterUnits="userSpaceOnUse" color-interpolation-filters="sRGB">
<feFlood flood-opacity="0" result="BackgroundImageFix"/>
<feColorMatrix in="SourceAlpha" type="matrix" values="0 0 0 0 0 0 0 0 0 0 0 0 0 0 0 0 0 0 127 0" result="hardAlpha"/>
<feMorphology radius="1" operator="erode" in="SourceAlpha" result="effect1_dropShadow_443_3897"/>
<feOffset dy="1"/>
<feGaussianBlur stdDeviation="1"/>
<feComposite in2="hardAlpha" operator="out"/>
<feColorMatrix type="matrix" values="0 0 0 0 0 0 0 0 0 0 0 0 0 0 0 0 0 0 0.1 0"/>
<feBlend mode="normal" in2="BackgroundImageFix" result="effect1_dropShadow_443_3897"/>
<feColorMatrix in="SourceAlpha" type="matrix" values="0 0 0 0 0 0 0 0 0 0 0 0 0 0 0 0 0 0 127 0" result="hardAlpha"/>
<feOffset dy="1"/>
<feGaussianBlur stdDeviation="1.5"/>
<feComposite in2="hardAlpha" operator="out"/>
<feColorMatrix type="matrix" values="0 0 0 0 0 0 0 0 0 0 0 0 0 0 0 0 0 0 0.1 0"/>
<feBlend mode="normal" in2="effect1_dropShadow_443_3897" result="effect2_dropShadow_443_3897"/>
<feBlend mode="normal" in="SourceGraphic" in2="effect2_dropShadow_443_3897" result="shape"/>
</filter>
</defs>
</svg>
