<svg width="33" height="32" viewBox="0 0 33 32" fill="none" xmlns="http://www.w3.org/2000/svg">
<g filter="url(#filter0_dd_443_3891)">
<path d="M16.0345 9.04541C16.5868 9.04541 17.0345 9.49313 17.0345 10.0454C17.0345 10.5977 16.5868 11.0454 16.0345 11.0454H10.7845C10.6519 11.0454 10.5248 11.0981 10.431 11.1919C10.3373 11.2857 10.2845 11.4128 10.2845 11.5454V22.0454C10.2845 22.178 10.3373 22.3052 10.431 22.3989C10.5248 22.4927 10.6519 22.5454 10.7845 22.5454H21.2845C21.4172 22.5454 21.5443 22.4927 21.6381 22.3989C21.7318 22.3052 21.7845 22.178 21.7845 22.0454V16.7954C21.7845 16.2431 22.2323 15.7954 22.7845 15.7954C23.3368 15.7954 23.7845 16.2431 23.7845 16.7954V22.0454C23.7845 22.7085 23.521 23.3441 23.0521 23.813C22.5833 24.2818 21.9476 24.5454 21.2845 24.5454H10.7845C10.1215 24.5454 9.48581 24.2818 9.01697 23.813C8.54813 23.3441 8.28455 22.7085 8.28455 22.0454V11.5454C8.28455 10.8824 8.54813 10.2467 9.01697 9.77783C9.48581 9.30899 10.1215 9.04541 10.7845 9.04541H16.0345ZM22.7845 7.45459C23.4717 7.45459 24.1307 7.72753 24.6166 8.21338C25.1024 8.69924 25.3753 9.35834 25.3754 10.0454C25.3753 10.7325 25.1024 11.3916 24.6166 11.8774L17.4916 19.0024C17.3634 19.1306 17.2025 19.2222 17.0267 19.2661L14.0267 20.0161C13.6861 20.1011 13.3258 20.0006 13.0775 19.7524C12.8293 19.5041 12.7297 19.1439 12.8148 18.8032L13.5648 15.8032L13.6058 15.6743C13.6559 15.549 13.7314 15.4345 13.8275 15.3384L20.9525 8.21338C21.4384 7.72753 22.0974 7.45459 22.7845 7.45459ZM22.7845 9.45459C22.6278 9.45459 22.4774 9.51666 22.3666 9.62744L15.4369 16.5562L15.1576 17.6714L16.2728 17.3931L23.2025 10.4634C23.3133 10.3526 23.3753 10.202 23.3754 10.0454C23.3753 9.88877 23.3133 9.73823 23.2025 9.62744C23.0917 9.51666 22.9412 9.45459 22.7845 9.45459Z" fill="black"/>
</g>
<defs>
<filter id="filter0_dd_443_3891" x="-2.17004" y="-2" width="38" height="38" filterUnits="userSpaceOnUse" color-interpolation-filters="sRGB">
<feFlood flood-opacity="0" result="BackgroundImageFix"/>
<feColorMatrix in="SourceAlpha" type="matrix" values="0 0 0 0 0 0 0 0 0 0 0 0 0 0 0 0 0 0 127 0" result="hardAlpha"/>
<feMorphology radius="1" operator="erode" in="SourceAlpha" result="effect1_dropShadow_443_3891"/>
<feOffset dy="1"/>
<feGaussianBlur stdDeviation="1"/>
<feComposite in2="hardAlpha" operator="out"/>
<feColorMatrix type="matrix" values="0 0 0 0 0 0 0 0 0 0 0 0 0 0 0 0 0 0 0.1 0"/>
<feBlend mode="normal" in2="BackgroundImageFix" result="effect1_dropShadow_443_3891"/>
<feColorMatrix in="SourceAlpha" type="matrix" values="0 0 0 0 0 0 0 0 0 0 0 0 0 0 0 0 0 0 127 0" result="hardAlpha"/>
<feOffset dy="1"/>
<feGaussianBlur stdDeviation="1.5"/>
<feComposite in2="hardAlpha" operator="out"/>
<feColorMatrix type="matrix" values="0 0 0 0 0 0 0 0 0 0 0 0 0 0 0 0 0 0 0.1 0"/>
<feBlend mode="normal" in2="effect1_dropShadow_443_3891" result="effect2_dropShadow_443_3891"/>
<feBlend mode="normal" in="SourceGraphic" in2="effect2_dropShadow_443_3891" result="shape"/>
</filter>
</defs>
</svg>
