<svg width="33" height="32" viewBox="0 0 33 32" fill="none" xmlns="http://www.w3.org/2000/svg">
<g filter="url(#filter0_dd_443_3885)">
<path d="M16.8299 9.75C19.8227 9.75 21.9446 11.2552 23.2811 12.6943C23.9495 13.4141 24.4361 14.1311 24.7557 14.668C24.9159 14.9372 25.0356 15.1643 25.117 15.3271C25.1576 15.4084 25.1889 15.4742 25.2108 15.5215C25.2216 15.5449 25.2308 15.564 25.2371 15.5781C25.2402 15.585 25.243 15.5912 25.2449 15.5957C25.2459 15.5979 25.2462 15.6009 25.2469 15.6025L25.2479 15.6045L25.2488 15.6055C25.2447 15.6077 25.1836 15.6341 24.3299 16C25.1836 16.3659 25.2447 16.3923 25.2488 16.3945L25.2479 16.3955L25.2469 16.3975C25.2462 16.3991 25.2459 16.4021 25.2449 16.4043C25.243 16.4088 25.2402 16.415 25.2371 16.4219C25.2308 16.436 25.2216 16.4551 25.2108 16.4785C25.1889 16.5258 25.1576 16.5916 25.117 16.6729C25.0356 16.8357 24.9159 17.0628 24.7557 17.332C24.4361 17.8689 23.9495 18.5859 23.2811 19.3057C21.9446 20.7448 19.8227 22.25 16.8299 22.25C13.8372 22.2499 11.7151 20.7448 10.3787 19.3057C9.71036 18.5858 9.22369 17.8689 8.90412 17.332C8.74387 17.0628 8.62419 16.8356 8.54279 16.6729C8.50218 16.5916 8.47087 16.5258 8.44904 16.4785C8.43824 16.4551 8.42895 16.436 8.42268 16.4219C8.41962 16.415 8.41684 16.4088 8.41486 16.4043C8.41391 16.402 8.41361 16.3991 8.41291 16.3975L8.41193 16.3955L8.41096 16.3945C8.4117 16.3937 8.4406 16.3811 9.3299 16C8.4406 15.6189 8.4117 15.6063 8.41096 15.6055L8.41193 15.6045L8.41291 15.6025C8.41361 15.6009 8.41391 15.598 8.41486 15.5957C8.41684 15.5912 8.41962 15.585 8.42268 15.5781C8.42895 15.564 8.43824 15.5449 8.44904 15.5215C8.47087 15.4742 8.50218 15.4084 8.54279 15.3271C8.62419 15.1644 8.74387 14.9372 8.90412 14.668C9.22369 14.1311 9.71036 13.4142 10.3787 12.6943C11.7151 11.2552 13.8372 9.75013 16.8299 9.75ZM16.8299 11.75C14.5732 11.7501 12.9446 12.87 11.8436 14.0557C11.2936 14.6481 10.8891 15.2441 10.6229 15.6914C10.555 15.8054 10.4963 15.9093 10.4471 16C10.4963 16.0907 10.555 16.1946 10.6229 16.3086C10.8891 16.7559 11.2936 17.3519 11.8436 17.9443C12.9446 19.13 14.5732 20.2499 16.8299 20.25C19.0866 20.25 20.7152 19.13 21.8162 17.9443C22.3663 17.3519 22.7706 16.756 23.0369 16.3086C23.1047 16.1947 23.1625 16.0906 23.2117 16C23.1625 15.9094 23.1047 15.8053 23.0369 15.6914C22.7706 15.244 22.3663 14.6481 21.8162 14.0557C20.7152 12.87 19.0866 11.75 16.8299 11.75ZM16.8299 12.75C18.6248 12.75 20.0799 14.2051 20.0799 16C20.0799 17.7949 18.6248 19.25 16.8299 19.25C15.0351 19.2498 13.5799 17.7948 13.5799 16C13.5799 14.2052 15.0351 12.7502 16.8299 12.75ZM16.8299 14.75C16.1397 14.7502 15.5799 15.3098 15.5799 16C15.5799 16.6902 16.1397 17.2498 16.8299 17.25C17.5203 17.25 18.0799 16.6904 18.0799 16C18.0799 15.3096 17.5203 14.75 16.8299 14.75ZM9.3299 16L8.41096 16.3936C8.30336 16.1422 8.30336 15.8578 8.41096 15.6064L9.3299 16ZM25.2488 15.6064C25.3565 15.8579 25.3565 16.1421 25.2488 16.3936L24.3299 16L25.2488 15.6064Z" fill="black"/>
</g>
<defs>
<filter id="filter0_dd_443_3885" x="-2.17004" y="-2" width="38" height="38" filterUnits="userSpaceOnUse" color-interpolation-filters="sRGB">
<feFlood flood-opacity="0" result="BackgroundImageFix"/>
<feColorMatrix in="SourceAlpha" type="matrix" values="0 0 0 0 0 0 0 0 0 0 0 0 0 0 0 0 0 0 127 0" result="hardAlpha"/>
<feMorphology radius="1" operator="erode" in="SourceAlpha" result="effect1_dropShadow_443_3885"/>
<feOffset dy="1"/>
<feGaussianBlur stdDeviation="1"/>
<feComposite in2="hardAlpha" operator="out"/>
<feColorMatrix type="matrix" values="0 0 0 0 0 0 0 0 0 0 0 0 0 0 0 0 0 0 0.1 0"/>
<feBlend mode="normal" in2="BackgroundImageFix" result="effect1_dropShadow_443_3885"/>
<feColorMatrix in="SourceAlpha" type="matrix" values="0 0 0 0 0 0 0 0 0 0 0 0 0 0 0 0 0 0 127 0" result="hardAlpha"/>
<feOffset dy="1"/>
<feGaussianBlur stdDeviation="1.5"/>
<feComposite in2="hardAlpha" operator="out"/>
<feColorMatrix type="matrix" values="0 0 0 0 0 0 0 0 0 0 0 0 0 0 0 0 0 0 0.1 0"/>
<feBlend mode="normal" in2="effect1_dropShadow_443_3885" result="effect2_dropShadow_443_3885"/>
<feBlend mode="normal" in="SourceGraphic" in2="effect2_dropShadow_443_3885" result="shape"/>
</filter>
</defs>
</svg>
